<svg xmlns="http://www.w3.org/2000/svg" viewBox="0 0 256 256">
  <rect width="256" height="256" rx="40" fill="#1a1a1a"/>
  <path d="M128 40c-40 0-72 28-72 72v80c0 8 8 16 16 16h16c8 0-4-16-4-24s12-16 20-16 20 8 20 16-12 24-4 24h8c8 0-4-16-4-24s12-16 20-16 20 8 20 16-12 24-4 24h16c8 0 16-8 16-16v-80c0-44-32-72-72-72z" fill="white"/>
  <circle cx="100" cy="100" r="12" fill="#1a1a1a"/>
  <circle cx="156" cy="100" r="12" fill="#1a1a1a"/>
  <path d="M108 124c0 0 10 14 20 14s20-14 20-14" stroke="#1a1a1a" stroke-width="4" fill="none" stroke-linecap="round"/>
  <text x="128" y="175" font-family="Arial Black" font-size="40" fill="#f7931a" text-anchor="middle" font-weight="bold">₿</text>
</svg>
